<svg width="150" height="24" viewBox="0 0 150 24" fill="none" xmlns="http://www.w3.org/2000/svg">
<path d="M0 18.7291V0H15.0373V3.4515H3.64225V8.29431H14.621V11.7993H3.64225V18.7291H0Z" fill="white"/>
<path d="M33.7794 18.7291H30.5535L30.1892 16.9632C28.8624 18.3278 26.9632 19.1304 24.7519 19.1304C20.4332 19.1304 17.1812 16.107 17.1812 12.0669C17.1812 7.97325 20.4072 4.94983 24.7519 4.94983C26.9372 4.94983 28.8624 5.72575 30.1892 7.11706L30.5535 5.35117H33.7794V18.7291ZM20.8234 12.0669C20.8234 14.2341 22.8007 15.8127 25.5323 15.8127C28.2901 15.8127 30.1372 14.2876 30.1372 12.0669C30.1372 9.8194 28.264 8.2408 25.5323 8.2408C22.8007 8.2408 20.8234 9.84615 20.8234 12.0669Z" fill="white"/>
<path d="M42.608 8.80268V12.4682C42.608 14.6087 43.8568 15.6522 46.3544 15.6522V19.1304C41.5414 19.1304 38.9658 16.6689 38.9658 12.4682V8.80268H36.3122V7.30435L41.1511 2.35451H42.608V5.35117H46.3544V8.80268H42.608Z" fill="white"/>
<path d="M52.7781 12.495V18.7291H49.1358V0H52.7781V7.51839C53.9228 5.91304 55.6399 4.94983 57.6431 4.94983C61.5455 4.94983 64.2772 8.02676 64.2772 12.495V18.7291H60.635V12.495C60.635 10.087 58.9699 8.40134 56.6545 8.40134C54.3391 8.40134 52.7781 10.087 52.7781 12.495Z" fill="white"/>
<path d="M82.3066 12.9766H70.4953C70.8855 14.903 72.5505 16.1873 74.7359 16.1873C76.2968 16.1873 77.5456 15.5987 78.222 14.6355H81.9163C80.9277 17.3645 78.144 19.1304 74.5798 19.1304C70.105 19.1304 66.7489 16.107 66.7489 12.0669C66.7489 7.97325 70.079 4.94983 74.5798 4.94983C79.0285 4.94983 82.3586 7.81271 82.3586 12.0669C82.3586 12.3612 82.3586 12.6823 82.3066 12.9766ZM70.4953 11.1037H78.6123C78.248 9.20401 76.7131 7.97324 74.5798 7.97324C72.4725 7.97324 70.8855 9.23077 70.4953 11.1037Z" fill="white"/>
<path d="M94.6392 4.94983V8.9097C90.7628 8.9097 88.4994 11.1839 88.4994 14.9298V18.7291H84.8571V5.35117H88.1092L88.4994 8.82943C89.6961 6.44816 91.8555 4.94983 94.6392 4.94983Z" fill="white"/>
<path d="M96.8997 18.7291V0H106.214C110.116 0 113.394 2.64883 113.394 6.63545C113.394 10.408 109.934 13.2709 106.214 13.2709H100.542V18.7291H96.8997ZM109.752 6.63545C109.752 4.7893 108.243 3.4515 106.214 3.4515H100.542V9.76589H106.214C108.217 9.76589 109.752 8.40134 109.752 6.63545Z" fill="white"/>
<path d="M131.441 18.7291H128.215L127.851 16.9632C126.524 18.3278 124.625 19.1304 122.414 19.1304C118.095 19.1304 114.843 16.107 114.843 12.0669C114.843 7.97325 118.069 4.94983 122.414 4.94983C124.599 4.94983 126.524 5.72575 127.851 7.11706L128.215 5.35117H131.441V18.7291ZM118.485 12.0669C118.485 14.2341 120.463 15.8127 123.194 15.8127C125.952 15.8127 127.799 14.2876 127.799 12.0669C127.799 9.8194 125.926 8.2408 123.194 8.2408C120.463 8.2408 118.485 9.84615 118.485 12.0669Z" fill="white"/>
<path d="M143.47 24H139.62L141.467 18.7291H137.85L133.116 5.35117H136.966L140.426 15.1438H142.742L146.176 5.35117H150L143.47 24Z" fill="white"/>
</svg>
