<svg width="28" height="28" viewBox="0 0 28 28" fill="none" xmlns="http://www.w3.org/2000/svg">
<rect width="28" height="28" rx="14" fill="#7B58E8"/>
<path d="M20.1747 6.21945C20.1486 6.17145 20.0666 6.1014 19.9925 6.06368C19.8747 6.00373 19.2462 5.99603 14.9551 6.00143C12.2586 6.00479 10.0004 6.01568 9.93699 6.0256C9.73655 6.05695 9.27506 6.23087 9.09364 6.34342C8.62917 6.63166 8.26119 7.0971 8.0812 7.62417C7.98139 7.91639 7.97914 7.97581 7.96409 10.7107C7.94734 13.7423 7.94896 13.7653 8.19921 13.9479C8.32623 14.0406 8.38027 14.0433 10.4247 14.0561L12.52 14.0691L12.5943 14.1806C12.6355 14.2424 12.6603 14.3488 12.6497 14.4191C12.6388 14.4917 11.5904 16.0335 10.2 18.0214C7.98094 21.1941 7.6897 21.6002 7.79654 21.7923C7.81546 21.8264 7.84699 21.8538 7.88248 21.8887L7.99562 22H10.6751C13.1304 22 13.4376 22.0042 13.6132 21.8569C13.6435 21.8315 13.6699 21.8015 13.7028 21.7663C13.7573 21.7078 14.9351 20.0395 16.3202 18.0588C18.2115 15.3545 18.8386 14.4254 18.8386 14.3276C18.8386 14.2874 18.8263 14.2418 18.8051 14.1981C18.7854 14.1574 18.7579 14.1183 18.7253 14.0863L18.6122 13.9749H16.0249C13.2929 13.9749 13.2266 13.9702 13.1481 13.7689C13.1323 13.7285 13.1194 13.1361 13.1194 12.4524C13.1194 11.2697 13.1239 11.2048 13.2117 11.1186C13.3022 11.0296 13.3654 11.0279 16.6282 11.0279H19.9526L20.2222 10.7628V8.53476C20.2222 7.09329 20.2055 6.27585 20.1747 6.21945Z" fill="white"/>
</svg>
