<svg width="32" height="32" viewBox="0 0 32 32" fill="none" xmlns="http://www.w3.org/2000/svg">
<path fill-rule="evenodd" clip-rule="evenodd" d="M4.05412 3.05651C3.5331 2.87333 2.96223 3.14721 2.77905 3.66823C2.59587 4.18925 2.86974 4.76012 3.39076 4.9433L3.73904 5.06575C4.62919 5.3787 5.21419 5.5861 5.64465 5.79731C6.04895 5.99569 6.22718 6.15627 6.34459 6.32808C6.46494 6.5042 6.55787 6.74609 6.61031 7.23056C6.66519 7.7375 6.66655 8.39779 6.66655 9.38438L6.66655 12.8533C6.66655 16.7754 6.75086 18.0698 7.90606 19.2882C9.06127 20.5066 10.9205 20.5066 14.6391 20.5066H21.7096C23.791 20.5066 24.8316 20.5066 25.5673 19.9072C26.3029 19.3077 26.513 18.2884 26.9331 16.2499L27.5995 13.017C28.0623 10.6982 28.2937 9.53885 27.7018 8.7694C27.1099 7.99996 25.0875 7.99996 22.8409 7.99996H8.65661C8.64769 7.63952 8.63077 7.3116 8.5987 7.01533C8.52706 6.35349 8.37184 5.74987 7.99586 5.19968C7.61695 4.6452 7.11316 4.29008 6.52565 4.00181C5.9762 3.73221 5.27802 3.48678 4.45598 3.1978L4.05412 3.05651ZM20.6898 11.2758C21.0897 11.6567 21.1052 12.2897 20.7243 12.6896L16.9148 16.6896C16.726 16.8878 16.4643 17 16.1906 17C15.917 17 15.6552 16.8878 15.4665 16.6896L13.9427 15.0896C13.5618 14.6897 13.5772 14.0567 13.9772 13.6758C14.3771 13.2949 15.0101 13.3104 15.391 13.7103L16.1906 14.55L19.276 11.3103C19.6569 10.9104 20.2899 10.8949 20.6898 11.2758Z" fill="#7B58E8"/>
<path d="M10.0002 24C11.1047 24 12.0002 24.8954 12.0002 26C12.0002 27.1045 11.1047 28 10.0002 28C8.89559 28 8.00016 27.1045 8.00016 26C8.00016 24.8954 8.89559 24 10.0002 24Z" fill="#7B58E8"/>
<path d="M22.0002 24.0001C23.1047 24.0001 24.0002 24.8955 24.0002 26.0001C24.0002 27.1046 23.1047 28.0001 22.0002 28.0001C20.8956 28.0001 20.0002 27.1046 20.0002 26.0001C20.0002 24.8955 20.8956 24.0001 22.0002 24.0001Z" fill="#7B58E8"/>
</svg>
