<svg width="20" height="20" viewBox="0 0 20 20" fill="none" xmlns="http://www.w3.org/2000/svg">
<path d="M12.9167 6.25C12.9167 7.86083 11.6109 9.16666 10 9.16666C8.38921 9.16666 7.08337 7.86083 7.08337 6.25C7.08337 4.63916 8.38921 3.33333 10 3.33333C11.6109 3.33333 12.9167 4.63916 12.9167 6.25Z" fill="#858892"/>
<path opacity="0.4" d="M16.25 6.25001C16.25 7.4006 15.3173 8.33334 14.1667 8.33334C13.0161 8.33334 12.0834 7.4006 12.0834 6.25001C12.0834 5.09941 13.0161 4.16667 14.1667 4.16667C15.3173 4.16667 16.25 5.09941 16.25 6.25001Z" fill="#858892"/>
<path opacity="0.4" d="M3.74996 6.25001C3.74996 7.4006 4.6827 8.33334 5.83329 8.33334C6.98389 8.33334 7.91663 7.4006 7.91663 6.25001C7.91663 5.09941 6.98389 4.16667 5.83329 4.16667C4.6827 4.16667 3.74996 5.09941 3.74996 6.25001Z" fill="#858892"/>
<path d="M15 13.75C15 15.3608 12.7614 16.6667 10 16.6667C7.23858 16.6667 5 15.3608 5 13.75C5 12.1392 7.23858 10.8333 10 10.8333C12.7614 10.8333 15 12.1392 15 13.75Z" fill="#858892"/>
<path opacity="0.4" d="M18.3333 13.75C18.3333 14.9006 16.8409 15.8333 15 15.8333C13.159 15.8333 11.6666 14.9006 11.6666 13.75C11.6666 12.5994 13.159 11.6667 15 11.6667C16.8409 11.6667 18.3333 12.5994 18.3333 13.75Z" fill="#858892"/>
<path opacity="0.4" d="M1.66671 13.75C1.66671 14.9006 3.15909 15.8333 5.00004 15.8333C6.84099 15.8333 8.33337 14.9006 8.33337 13.75C8.33337 12.5994 6.84099 11.6667 5.00004 11.6667C3.15909 11.6667 1.66671 12.5994 1.66671 13.75Z" fill="#858892"/>
</svg>
