<svg width="16" height="16" viewBox="0 0 16 16" fill="none" xmlns="http://www.w3.org/2000/svg">
<path d="M14.6667 7.99998C14.6667 11.6819 11.6819 14.6666 8.00004 14.6666C4.31814 14.6666 1.33337 11.6819 1.33337 7.99998C1.33337 4.31808 4.31814 1.33331 8.00004 1.33331C11.6819 1.33331 14.6667 4.31808 14.6667 7.99998Z" fill="#282D36"/>
<path d="M8 5.16669C7.58579 5.16669 7.25 5.50247 7.25 5.91669C7.25 6.19283 7.02614 6.41669 6.75 6.41669C6.47386 6.41669 6.25 6.19283 6.25 5.91669C6.25 4.95019 7.0335 4.16669 8 4.16669C8.9665 4.16669 9.75 4.95019 9.75 5.91669C9.75 6.39058 9.56098 6.82134 9.25531 7.136C9.1938 7.19931 9.13512 7.25794 9.07915 7.31386C8.93526 7.45763 8.8092 7.58358 8.6986 7.72568C8.55258 7.9133 8.5 8.0512 8.5 8.16669V8.66669C8.5 8.94283 8.27614 9.16669 8 9.16669C7.72386 9.16669 7.5 8.94283 7.5 8.66669V8.16669C7.5 7.72989 7.70334 7.37631 7.90945 7.11149C8.06195 6.91555 8.25363 6.72425 8.40918 6.569L8.40918 6.569C8.45611 6.52216 8.49975 6.47861 8.53803 6.4392C8.66972 6.30364 8.75 6.12005 8.75 5.91669C8.75 5.50247 8.41421 5.16669 8 5.16669Z" fill="#858892"/>
<path d="M8 11.3334C8.36819 11.3334 8.66667 11.0349 8.66667 10.6667C8.66667 10.2985 8.36819 10 8 10C7.63181 10 7.33333 10.2985 7.33333 10.6667C7.33333 11.0349 7.63181 11.3334 8 11.3334Z" fill="#858892"/>
</svg>
