<svg width="52" height="52" viewBox="0 0 52 52" fill="none" xmlns="http://www.w3.org/2000/svg">
<mask id="mask0_210_2169" style="mask-type:luminance" maskUnits="userSpaceOnUse" x="5" y="5" width="42" height="42">
<path d="M47 5H5V47H47V5Z" fill="white"/>
</mask>
<g mask="url(#mask0_210_2169)">
<path d="M47 26C47 14.402 37.598 5 26 5C14.402 5 5 14.402 5 26C5 37.598 14.402 47 26 47C37.598 47 47 37.598 47 26Z" fill="#FF5533"/>
<path d="M20.6882 23.0667C20.7713 22.9935 20.8129 22.9568 20.8194 22.921C20.8251 22.8898 20.8164 22.8577 20.7957 22.8337C20.7719 22.806 20.7185 22.7956 20.6115 22.7748C19.364 22.532 18.0725 22.3896 16.9395 22.3777C16.8852 22.3772 16.858 22.3769 16.8369 22.3667C16.8182 22.3577 16.8029 22.3436 16.7922 22.3258C16.7803 22.3056 16.7777 22.2788 16.7725 22.2252L16.3524 17.9057C16.3472 17.8521 16.3446 17.8254 16.3526 17.8031C16.3597 17.7836 16.3724 17.7665 16.3892 17.7541C16.4082 17.7401 16.4346 17.735 16.4874 17.7248C22.8157 16.5005 29.1146 16.4376 35.5378 17.7272C35.5904 17.7377 35.6166 17.743 35.6356 17.7571C35.6522 17.7695 35.6648 17.7866 35.6718 17.8062C35.6797 17.8284 35.677 17.8551 35.6716 17.9085L35.2358 22.2258C35.2304 22.2792 35.2277 22.3059 35.2157 22.326C35.2051 22.3438 35.1898 22.3578 35.1711 22.3668C35.15 22.3769 35.123 22.3772 35.0688 22.3777C33.9357 22.3895 32.644 22.532 31.3962 22.7748C31.2893 22.7956 31.2358 22.806 31.212 22.8337C31.1913 22.8577 31.1826 22.8898 31.1883 22.921C31.1949 22.9568 31.2364 22.9935 31.3196 23.0667C34.3258 25.7169 36.452 29.2087 36.4997 34.1141C36.5003 34.173 36.5006 34.2025 36.4892 34.2252C36.4793 34.245 36.463 34.2614 36.4433 34.2716C36.4207 34.2831 36.3913 34.2831 36.3325 34.2831H32.0019C31.943 34.2831 31.9136 34.2831 31.8913 34.2719C31.8715 34.2619 31.8558 34.2464 31.8455 34.2267C31.834 34.2046 31.8335 34.1744 31.8327 34.1141C31.7766 30.0197 29.6738 27.2901 26.0955 24.9534C26.0624 24.9318 26.0459 24.921 26.028 24.9168C26.0122 24.9131 25.9955 24.9131 25.9798 24.9168C25.9619 24.921 25.9453 24.9318 25.9123 24.9534C22.334 27.2901 20.2312 30.0197 20.175 34.1141C20.1742 34.1744 20.1738 34.2046 20.1622 34.2267C20.152 34.2464 20.1362 34.2619 20.1164 34.2719C20.0941 34.2831 20.0647 34.2831 20.0059 34.2831H15.6752C15.6164 34.2831 15.587 34.2831 15.5645 34.2716C15.5447 34.2614 15.5285 34.245 15.5185 34.2252C15.5072 34.2025 15.5075 34.173 15.508 34.1141C15.5558 29.2087 17.682 25.7169 20.6882 23.0667Z" fill="white"/>
</g>
</svg>
