<svg width="24" height="24" viewBox="0 0 24 24" fill="none" xmlns="http://www.w3.org/2000/svg">
<path fill-rule="evenodd" clip-rule="evenodd" d="M21.1008 8.00353C21.0442 7.99996 20.9825 7.99998 20.9185 8L20.9025 8.00001H18.394C16.3264 8.00001 14.5572 9.62757 14.5572 11.75C14.5572 13.8724 16.3264 15.5 18.394 15.5H20.9025L20.9185 15.5C20.9825 15.5 21.0442 15.5001 21.1008 15.4965C21.9407 15.4434 22.6835 14.7862 22.7459 13.8682C22.75 13.808 22.75 13.7431 22.7499 13.683L22.7499 13.6667V9.83334L22.7499 9.81702C22.75 9.75688 22.75 9.69199 22.7459 9.6318C22.6835 8.71381 21.9407 8.05657 21.1008 8.00353ZM18.1716 12.75C18.7039 12.75 19.1355 12.3023 19.1355 11.75C19.1355 11.1977 18.7039 10.75 18.1716 10.75C17.6393 10.75 17.2078 11.1977 17.2078 11.75C17.2078 12.3023 17.6393 12.75 18.1716 12.75Z" fill="#4F5562"/>
<path fill-rule="evenodd" clip-rule="evenodd" d="M20.9179 17C21.067 16.9961 21.1798 17.1342 21.1393 17.2778C20.9386 17.9902 20.62 18.5975 20.1087 19.1088C19.3603 19.8571 18.4114 20.1892 17.239 20.3469C16.0997 20.5 14.6441 20.5 12.8064 20.5H10.6935C8.85577 20.5 7.40013 20.5 6.26092 20.3469C5.08849 20.1892 4.13955 19.8571 3.39118 19.1088C2.64282 18.3604 2.3107 17.4114 2.15307 16.239C1.99991 15.0998 1.99992 13.6442 1.99994 11.8064V11.6936C1.99992 9.85583 1.99991 8.40019 2.15307 7.26098C2.3107 6.08856 2.64282 5.13961 3.39118 4.39124C4.13955 3.64288 5.08849 3.31076 6.26092 3.15314C7.40013 2.99997 8.85576 2.99998 10.6935 3L12.8064 3C14.6441 2.99998 16.0997 2.99997 17.239 3.15314C18.4114 3.31076 19.3603 3.64288 20.1087 4.39124C20.62 4.90252 20.9386 5.50974 21.1393 6.22218C21.1798 6.36575 21.0669 6.50387 20.9178 6.5L18.394 6.50001C15.5573 6.50001 13.0571 8.74091 13.0571 11.75C13.0571 14.7591 15.5573 17 18.394 17L20.9179 17ZM5.74994 7C5.33573 7 4.99994 7.33579 4.99994 7.75C4.99994 8.16421 5.33573 8.5 5.74994 8.5H9.74994C10.1642 8.5 10.4999 8.16421 10.4999 7.75C10.4999 7.33579 10.1642 7 9.74994 7H5.74994Z" fill="#4F5562"/>
</svg>
