<svg width="20" height="20" viewBox="0 0 20 20" fill="none" xmlns="http://www.w3.org/2000/svg">
<path opacity="0.5" fill-rule="evenodd" clip-rule="evenodd" d="M18.3335 10C18.3335 14.6024 14.6025 18.3333 10.0001 18.3333C5.39777 18.3333 1.66681 14.6024 1.66681 10C1.66681 5.39763 5.39777 1.66667 10.0001 1.66667C14.6025 1.66667 18.3335 5.39763 18.3335 10Z" fill="#858892"/>
<path fill-rule="evenodd" clip-rule="evenodd" d="M7.49994 11.0417C7.15476 11.0417 6.87494 11.3215 6.87494 11.6667C6.87494 12.0119 7.15476 12.2917 7.49994 12.2917H7.70827V14.1667C7.70827 14.5119 7.98809 14.7917 8.33327 14.7917C8.67845 14.7917 8.95827 14.5119 8.95827 14.1667V12.2917H9.99994C10.3451 12.2917 10.6249 12.0119 10.6249 11.6667C10.6249 11.3215 10.3451 11.0417 9.99994 11.0417H8.95827V10.6251H11.2499C12.7457 10.6251 13.9583 9.4125 13.9583 7.91673C13.9583 6.42096 12.7457 5.2084 11.2499 5.2084L9.30119 5.20837C9.17992 5.20822 9.05386 5.20807 8.93847 5.22635C8.31446 5.32518 7.82506 5.81459 7.72623 6.43859C7.70795 6.55399 7.7081 6.68005 7.70825 6.80132L7.70827 9.37506H7.49994C7.15476 9.37506 6.87494 9.65488 6.87494 10.0001C6.87494 10.3452 7.15476 10.6251 7.49994 10.6251H7.70827V11.0417H7.49994ZM11.2499 9.37506H8.95827V6.83339C8.95827 6.75259 8.95833 6.70449 8.95932 6.66823C8.95995 6.64522 8.96082 6.63522 8.96105 6.63281C8.97558 6.54474 9.04462 6.4757 9.13269 6.46117C9.1351 6.46094 9.1451 6.46007 9.1681 6.45944C9.20437 6.45845 9.25247 6.45839 9.33327 6.45839H11.2499C12.0554 6.45839 12.7083 7.11131 12.7083 7.91673C12.7083 8.72214 12.0554 9.37506 11.2499 9.37506Z" fill="#858892"/>
</svg>
