<svg width="52" height="52" viewBox="0 0 52 52" fill="none" xmlns="http://www.w3.org/2000/svg">
<path d="M47 26C47 14.402 37.598 5 26 5C14.402 5 5 14.402 5 26C5 37.598 14.402 47 26 47C37.598 47 47 37.598 47 26Z" fill="white"/>
<mask id="mask0_210_2155" style="mask-type:luminance" maskUnits="userSpaceOnUse" x="17" y="15" width="18" height="22">
<path d="M34.9082 15.326H17.4082V36.9624H34.9082V15.326Z" fill="white"/>
</mask>
<g mask="url(#mask0_210_2155)">
<path d="M17.4082 20.0356L20.0032 24.719V27.5757L17.4112 32.2499L17.4082 20.0356Z" fill="#5B57A2"/>
<path d="M27.373 23.0147L29.8047 21.5099L34.7811 21.5052L27.373 26.0874V23.0147Z" fill="#D90751"/>
<path d="M27.3588 20.008L27.3726 26.2086L24.7715 24.5949V15.326L27.3588 20.008Z" fill="#FAB718"/>
<path d="M34.7806 21.5052L29.804 21.5099L27.3588 20.008L24.7715 15.326L34.7806 21.5052Z" fill="#ED6F26"/>
<path d="M27.3726 32.2758V29.2674L24.7715 27.6844L24.7729 36.9624L27.3726 32.2758Z" fill="#63B22F"/>
<path d="M29.7975 30.7847L20.003 24.719L17.4082 20.0356L34.7695 30.7786L29.7975 30.7847Z" fill="#1487C9"/>
<path d="M24.7715 36.9624L27.3708 32.2758L29.7963 30.7847L34.7683 30.7786L24.7715 36.9624Z" fill="#017F36"/>
<path d="M17.4102 32.2498L24.791 27.6845L22.3096 26.1473L20.0021 27.5756L17.4102 32.2498Z" fill="#984995"/>
</g>
</svg>
