<svg width="32" height="32" viewBox="0 0 32 32" fill="none" xmlns="http://www.w3.org/2000/svg">
<g clip-path="url(#clip0_48_1435)">
<path d="M15.9381 32C24.8088 32 32 24.8366 32 16C32 7.16344 24.8088 0 15.9381 0C7.93346 0 1.29646 5.83282 0.0766641 13.4645L11.7685 18.515C11.9558 18.3866 12.1555 18.2749 12.3687 18.1843C12.8522 17.9763 13.3621 17.8839 13.8702 17.907L17.0069 13.1538C17.0057 13.1326 17.0057 13.1102 17.0057 13.0878C17.0057 10.2823 19.1897 8 21.8749 8C24.5602 8 26.7435 10.2822 26.7435 13.0877C26.7435 15.8931 24.5602 18.1766 21.8749 18.1766C21.8381 18.1766 21.8012 18.176 21.7643 18.1747L17.276 21.5207C17.2895 22.0375 17.198 22.5556 17.0026 23.0486C16.2494 24.9373 14.1638 25.8361 12.3546 25.047C11.2487 24.5662 10.4993 23.566 10.2548 22.4272L0 17.997C0.986672 25.8911 7.74619 32 15.9381 32Z" fill="#7B58E8"/>
<path d="M12.6666 24.2645C14.0636 24.8718 15.6707 24.1791 16.2538 22.7206C16.5351 22.0157 16.5363 21.2357 16.2574 20.5282C15.9791 19.8207 15.4538 19.268 14.7769 18.974C14.1054 18.6825 13.3866 18.6915 12.7545 18.9418L14.3929 19.65C15.4226 20.0981 15.9097 21.3332 15.4803 22.4086C15.0521 23.4832 13.8702 23.993 12.8399 23.5449L11.2549 22.8592C11.5357 23.471 12.0222 23.9839 12.6666 24.2645Z" fill="#7B58E8"/>
<path fill-rule="evenodd" clip-rule="evenodd" d="M18.6309 13.0877C18.6309 14.9571 20.0862 16.4786 21.8745 16.4786C23.6629 16.4786 25.1189 14.9571 25.1189 13.0877C25.1189 11.2195 23.6629 9.698 21.8745 9.698C20.0862 9.698 18.6309 11.2195 18.6309 13.0877ZM19.4437 13.0826C19.4437 14.4891 20.5347 15.6286 21.8795 15.6286C23.2255 15.6286 24.3172 14.4891 24.3172 13.0826C24.3172 11.676 23.2255 10.5352 21.8795 10.5352C20.5347 10.5352 19.4437 11.676 19.4437 13.0826Z" fill="#7B58E8"/>
</g>
<defs>
<clipPath id="clip0_48_1435">
<rect width="32" height="32" fill="white"/>
</clipPath>
</defs>
</svg>
