<svg width="16" height="14" viewBox="0 0 16 14" fill="none" xmlns="http://www.w3.org/2000/svg">
<path fill-rule="evenodd" clip-rule="evenodd" d="M1.23274 5.82036C5.39334 4.00765 8.16772 2.8126 9.55589 2.23522C13.5194 0.586659 14.343 0.300287 14.8798 0.29083C14.9978 0.288751 15.2618 0.31801 15.4328 0.456762C15.5772 0.573922 15.6169 0.732187 15.6359 0.843267C15.655 0.954347 15.6786 1.20739 15.6598 1.40511C15.445 3.66186 14.5157 9.1384 14.0428 11.666C13.8428 12.7355 13.4489 13.0941 13.0675 13.1292C12.2387 13.2055 11.6093 12.5815 10.8066 12.0553C9.55046 11.2319 8.84083 10.7193 7.62154 9.91581C6.21244 8.98723 7.1259 8.47687 7.92894 7.6428C8.1391 7.42452 11.7908 4.10298 11.8615 3.80167C11.8704 3.76398 11.8786 3.62351 11.7951 3.54934C11.7117 3.47517 11.5885 3.50053 11.4996 3.5207C11.3736 3.5493 9.36694 4.87564 5.47957 7.49972C4.90998 7.89085 4.39406 8.08142 3.93182 8.07143C3.42224 8.06042 2.442 7.7833 1.71329 7.54643C0.8195 7.25589 0.109134 7.10228 0.170991 6.60886C0.20321 6.35186 0.557127 6.08903 1.23274 5.82036Z" fill="#858892"/>
</svg>
