<svg width="52" height="52" viewBox="0 0 52 52" fill="none" xmlns="http://www.w3.org/2000/svg">
<path d="M26 47C37.598 47 47 37.598 47 26C47 14.402 37.598 5 26 5C14.402 5 5 14.402 5 26C5 37.598 14.402 47 26 47Z" fill="#0088CC"/>
<path fill-rule="evenodd" clip-rule="evenodd" d="M20.1566 18.8783L31.9349 18.8782C32.3516 18.8782 32.768 18.9394 33.2032 19.1423C33.7248 19.3854 34.0014 19.7687 34.1952 20.0521C34.2103 20.0742 34.2244 20.0969 34.2374 20.1201C34.4653 20.5257 34.5827 20.9637 34.5827 21.4347C34.5827 21.8823 34.4762 22.37 34.2374 22.795C34.2352 22.7991 34.2328 22.8031 34.2305 22.8072L26.7892 35.5898C26.6251 35.8717 26.323 36.0446 25.9969 36.0435C25.6707 36.0423 25.3699 35.8672 25.2078 35.5842L17.9031 22.8288C17.901 22.8254 17.8989 22.8219 17.8968 22.8184C17.7296 22.5429 17.4711 22.1169 17.4259 21.5672C17.3843 21.0616 17.4979 20.5551 17.752 20.1159C18.006 19.6766 18.3884 19.3254 18.8484 19.1105C19.3416 18.88 19.8414 18.8783 20.1566 18.8783ZM25.087 20.7043H20.1566C19.8327 20.7043 19.7083 20.7243 19.6214 20.7649C19.5012 20.821 19.4002 20.9133 19.3327 21.03C19.2652 21.1468 19.2347 21.2821 19.2458 21.4176C19.2522 21.4952 19.2838 21.584 19.4705 21.8919C19.4744 21.8983 19.4782 21.9048 19.482 21.9114L25.087 31.6988V20.7043ZM26.9131 20.7043V31.7472L32.648 21.8958C32.7127 21.7782 32.7566 21.6083 32.7566 21.4347C32.7566 21.294 32.7274 21.1717 32.6622 21.0457C32.5937 20.9472 32.552 20.8951 32.5171 20.8594C32.4872 20.8289 32.4642 20.8125 32.4316 20.7974C32.296 20.7342 32.1573 20.7043 31.9349 20.7043H26.9131Z" fill="white"/>
</svg>
