<svg width="52" height="52" viewBox="0 0 52 52" fill="none" xmlns="http://www.w3.org/2000/svg">
<path d="M26.2955 46.9967C37.8924 46.8348 47.1622 37.3024 47.0003 25.7055C46.8384 14.1087 37.306 4.83887 25.7091 5.0008C14.1123 5.16273 4.84245 14.6951 5.00439 26.292C5.16632 37.8888 14.6987 47.1586 26.2955 46.9967Z" fill="#EB0017"/>
<path d="M36.1536 20.561L27.0501 24.8292L33.1348 18.4137L36.1536 20.561ZM32.3736 18.125L25.4751 25.433L15.9673 14.1875L32.3736 18.125ZM15.8466 15.1797L25.0813 26.0997L23.9001 37.8072L15.8466 15.1797ZM24.6141 37.8125L25.8058 26.2257L35.7283 21.5742L24.6141 37.8125Z" fill="white"/>
</svg>
