<svg width="52" height="52" viewBox="0 0 52 52" fill="none" xmlns="http://www.w3.org/2000/svg">
<path d="M47 26C47 14.402 37.598 5 26 5C14.402 5 5 14.402 5 26C5 37.598 14.402 47 26 47C37.598 47 47 37.598 47 26Z" fill="#8B3FFD"/>
<path d="M29.1489 17.075C23.8858 17.075 19.6992 21.3215 19.6992 26.525C19.6992 31.7883 23.9456 35.975 29.1489 35.975C34.3522 35.975 38.5986 31.7285 38.5986 26.525C38.6584 21.3215 34.3522 17.075 29.1489 17.075ZM29.1489 30.0538C27.235 30.0538 25.6202 28.439 25.6202 26.525C25.6202 24.6111 27.235 22.9962 29.1489 22.9962C31.0627 22.9962 32.6776 24.6111 32.6776 26.525C32.6776 28.439 31.1226 30.0538 29.1489 30.0538Z" fill="white"/>
<path d="M19.6996 19.175V33.875H16.4519L12.3496 19.175H19.6996Z" fill="white"/>
</svg>
