<svg width="52" height="52" viewBox="0 0 52 52" fill="none" xmlns="http://www.w3.org/2000/svg">
<path fill-rule="evenodd" clip-rule="evenodd" d="M12.1569 8.18663L4.19193 24.917C4.16162 24.9793 4.15201 25.0496 4.16452 25.1176C4.17702 25.1857 4.21098 25.248 4.26142 25.2954L25.7729 45.9085C25.834 45.9671 25.9153 45.9999 26 45.9999C26.0847 45.9999 26.166 45.9671 26.2272 45.9085L47.7386 25.2967C47.789 25.2493 47.823 25.187 47.8355 25.1189C47.848 25.0508 47.8384 24.9806 47.8081 24.9183L39.8431 8.18792C39.8174 8.13173 39.7761 8.08413 39.724 8.05081C39.672 8.01749 39.6115 7.99986 39.5497 8.00002H12.4529C12.3908 7.99925 12.3298 8.01646 12.2773 8.04957C12.2248 8.08268 12.183 8.13028 12.1569 8.18663Z" fill="#50AF95"/>
<path fill-rule="evenodd" clip-rule="evenodd" d="M28.7637 26.6351C28.6092 26.6467 27.8113 26.6943 26.0315 26.6943C24.6158 26.6943 23.6107 26.6519 23.2581 26.6351C17.7872 26.3945 13.7037 25.4421 13.7037 24.3019C13.7037 23.1617 17.7872 22.2106 23.2581 21.9661V25.6867C23.6159 25.7124 24.6403 25.7729 26.0559 25.7729C27.7547 25.7729 28.6054 25.7021 28.7585 25.6879V21.9686C34.2178 22.2119 38.2923 23.1642 38.2923 24.3019C38.2923 25.4396 34.2191 26.3919 28.7585 26.6339L28.7637 26.6351ZM28.7637 21.5838V18.2545H36.3824V13.1775H15.6393V18.2545H23.2568V21.5826C17.0653 21.867 12.4091 23.0934 12.4091 24.5631C12.4091 26.0328 17.0653 27.258 23.2568 27.5437V38.2126H28.7624V27.5399C34.9398 27.2555 39.5882 26.0303 39.5882 24.5619C39.5882 23.0934 34.9436 21.8683 28.7624 21.5826L28.7637 21.5838Z" fill="white"/>
</svg>
