<svg width="52" height="52" viewBox="0 0 52 52" fill="none" xmlns="http://www.w3.org/2000/svg">
<path d="M26 47C37.598 47 47 37.598 47 26C47 14.402 37.598 5 26 5C14.402 5 5 14.402 5 26C5 37.598 14.402 47 26 47Z" fill="white"/>
<mask id="mask0_210_2320" style="mask-type:luminance" maskUnits="userSpaceOnUse" x="18" y="21" width="16" height="10">
<path d="M34 21H18V31H34V21Z" fill="white"/>
</mask>
<g mask="url(#mask0_210_2320)">
<mask id="mask1_210_2320" style="mask-type:luminance" maskUnits="userSpaceOnUse" x="18" y="21" width="16" height="10">
<path d="M33.9332 21.1429H18.3301V30.8572H33.9332V21.1429Z" fill="white"/>
</mask>
<g mask="url(#mask1_210_2320)">
<path d="M28.2361 22.1771H24.0137V29.7789H28.2361V22.1771Z" fill="#FF5A00"/>
<path d="M24.2953 25.9781C24.2953 24.4336 25.0198 23.0628 26.1317 22.1772C25.3134 21.5325 24.2812 21.1428 23.1553 21.1428C20.4882 21.1428 18.3301 23.3054 18.3301 25.9781C18.3301 28.6507 20.4882 30.8133 23.1553 30.8133C24.2812 30.8133 25.3134 30.4237 26.1317 29.779C25.0183 28.9058 24.2953 27.5225 24.2953 25.9781Z" fill="#EB001B"/>
<path d="M33.9324 25.9781C33.9324 28.6507 31.7744 30.8133 29.1072 30.8133C27.9813 30.8133 26.9491 30.4237 26.1309 29.779C27.2567 28.8917 27.9673 27.5225 27.9673 25.9781C27.9673 24.4336 27.2427 23.0628 26.1309 22.1772C26.9476 21.5325 27.9798 21.1428 29.1056 21.1428C31.7744 21.1428 33.9324 23.3195 33.9324 25.9781Z" fill="#F79E1B"/>
</g>
</g>
<mask id="mask2_210_2320" style="mask-type:luminance" maskUnits="userSpaceOnUse" x="17" y="10" width="18" height="7">
<path d="M35 10H17V17H35V10Z" fill="white"/>
</mask>
<g mask="url(#mask2_210_2320)">
<path d="M28.7083 10.2855C27.4364 10.2855 26.2998 11.0573 26.2998 12.4833C26.2998 14.1186 28.3156 14.2315 28.3156 15.053C28.3156 15.3989 27.977 15.7086 27.3987 15.7086C26.578 15.7086 25.9645 15.2759 25.9645 15.2759L25.7021 16.7148C25.7021 16.7148 26.4087 17.0803 27.3469 17.0803C28.7375 17.0803 29.8317 16.2706 29.8317 14.8203C29.8317 13.0923 27.8075 12.9827 27.8075 12.2202C27.8075 11.9493 28.0854 11.6524 28.6621 11.6524C29.3128 11.6524 29.8436 11.967 29.8436 11.967L30.1005 10.5772C30.1005 10.5772 29.5229 10.2855 28.7083 10.2855ZM17.0718 10.3904L17.041 10.6002C17.041 10.6002 17.5761 10.7148 18.058 10.9435C18.6786 11.2058 18.7228 11.3585 18.8273 11.8326L19.9661 16.9722H21.4926L23.8444 10.3904H22.3214L20.8102 14.8654L20.1935 11.0722C20.137 10.6381 19.8505 10.3904 19.4999 10.3904H17.0718ZM24.4569 10.3904L23.2621 16.9722H24.7144L25.905 10.3904H24.4569ZM32.5573 10.3904C32.207 10.3904 32.0215 10.6099 31.8853 10.9935L29.7575 16.9722H31.2806L31.5752 15.9757H33.4308L33.61 16.9722H34.9539L33.7815 10.3904H32.5573ZM32.7553 12.1686L33.2068 14.6384H31.9973L32.7553 12.1686Z" fill="#00259F"/>
</g>
<path fill-rule="evenodd" clip-rule="evenodd" d="M18.7079 35.0011C18.8729 35 19.3632 34.9502 19.5709 35.7408C19.7108 36.2734 19.9337 37.1457 20.2395 38.3579H20.3641C20.6921 37.0799 20.9174 36.2076 21.04 35.7408C21.2499 34.9419 21.7746 35.0011 21.9844 35.0011H23.6037V40.6818H21.9533V37.3341H21.8426L20.9227 40.6818H19.681L18.761 37.3316H18.6503V40.6818H17V35.0011H18.7079ZM25.9735 35.0011V38.3513H26.1052L27.2242 35.5965C27.4415 35.0482 27.9045 35.0011 27.9045 35.0011H29.5015V40.6818H27.8167V37.3316H27.685L26.5879 40.0865C26.3707 40.6322 25.8857 40.6818 25.8857 40.6818H24.2887V35.0011H25.9735ZM35.3249 37.7006C35.0899 38.4517 34.3519 38.9896 33.5348 38.9896H31.7679V40.6818H30.1658V37.7006H35.3249Z" fill="#28A43F"/>
<path fill-rule="evenodd" clip-rule="evenodd" d="M33.6104 35.001H30.0801C30.1641 36.2657 31.1298 37.3484 32.1295 37.3484H35.4346C35.6253 36.2973 34.9687 35.001 33.6104 35.001Z" fill="url(#paint0_linear_210_2320)"/>
<defs>
<linearGradient id="paint0_linear_210_2320" x1="35.467" y1="36.4776" x2="30.0801" y2="36.4776" gradientUnits="userSpaceOnUse">
<stop stop-color="#1F5CD7"/>
<stop offset="1" stop-color="#02AEFF"/>
</linearGradient>
</defs>
</svg>
