<svg width="32" height="32" viewBox="0 0 32 32" fill="none" xmlns="http://www.w3.org/2000/svg">
<path fill-rule="evenodd" clip-rule="evenodd" d="M27.2143 13.1475C27.1415 13.1428 27.0622 13.1429 26.98 13.1429L26.9595 13.1429H23.7357C21.0785 13.1429 18.8048 15.251 18.8048 18C18.8048 20.7491 21.0785 22.8572 23.7357 22.8572H26.9595L26.98 22.8572C27.0622 22.8572 27.1415 22.8572 27.2143 22.8526C28.2937 22.7839 29.2482 21.9326 29.3285 20.7436C29.3337 20.6657 29.3337 20.5816 29.3336 20.5037L29.3336 20.4826V15.5175L29.3336 15.4963C29.3337 15.4185 29.3337 15.3344 29.3285 15.2564C29.2482 14.0674 28.2937 13.2161 27.2143 13.1475ZM23.4499 19.2953C24.134 19.2953 24.6886 18.7154 24.6886 18C24.6886 17.2847 24.134 16.7048 23.4499 16.7048C22.7658 16.7048 22.2112 17.2847 22.2112 18C22.2112 18.7154 22.7658 19.2953 23.4499 19.2953Z" fill="#7B58E8"/>
<path fill-rule="evenodd" clip-rule="evenodd" d="M26.9792 24.8C27.1708 24.795 27.3158 24.9739 27.2638 25.1598C27.0058 26.0826 26.5964 26.8691 25.9393 27.5314C24.9775 28.5007 23.758 28.9308 22.2513 29.135C20.7872 29.3334 18.9165 29.3334 16.5548 29.3334H13.8395C11.4777 29.3334 9.607 29.3334 8.14295 29.135C6.63622 28.9308 5.41669 28.5007 4.45494 27.5314C3.49318 26.5621 3.06637 25.3329 2.86379 23.8144C2.66696 22.3388 2.66697 20.4534 2.66699 18.0731V17.9269C2.66697 15.5466 2.66696 13.6612 2.86379 12.1857C3.06637 10.6671 3.49318 9.43799 4.45494 8.46868C5.41669 7.49937 6.63622 7.0692 8.14295 6.86503C9.607 6.66665 11.4777 6.66667 13.8395 6.66669L16.5548 6.66669C18.9165 6.66667 20.7872 6.66665 22.2513 6.86503C23.758 7.0692 24.9775 7.49937 25.9393 8.46868C26.5964 9.13091 27.0058 9.9174 27.2638 10.8402C27.3158 11.0261 27.1708 11.205 26.9791 11.2L23.7356 11.2C20.0901 11.2 16.877 14.1025 16.877 18C16.877 21.8975 20.0901 24.8 23.7356 24.8L26.9792 24.8ZM7.48627 11.8476C6.95395 11.8476 6.52241 12.2826 6.52241 12.8191C6.52241 13.3556 6.95395 13.7905 7.48627 13.7905H12.6268C13.1592 13.7905 13.5907 13.3556 13.5907 12.8191C13.5907 12.2826 13.1592 11.8476 12.6268 11.8476H7.48627Z" fill="#7B58E8"/>
<path d="M10.3692 5.36587L12.981 3.4417C14.3836 2.40835 16.2837 2.40835 17.6863 3.4417L20.3118 5.37599C19.2141 5.33329 17.9882 5.33332 16.6441 5.33336H13.7501C12.522 5.33333 11.3925 5.3333 10.3692 5.36587Z" fill="#7B58E8"/>
</svg>
