<svg width="20" height="20" viewBox="0 0 20 20" fill="none" xmlns="http://www.w3.org/2000/svg">
<path d="M9.99996 18.3333C6.07159 18.3333 4.1074 18.3333 2.88701 17.1129C1.66663 15.8925 1.66663 13.9284 1.66663 9.99999C1.66663 6.07162 1.66663 4.10743 2.88701 2.88704C4.1074 1.66666 6.07159 1.66666 9.99996 1.66666C13.9283 1.66666 15.8925 1.66666 17.1129 2.88704C18.3333 4.10743 18.3333 6.07162 18.3333 9.99999C18.3333 13.9284 18.3333 15.8925 17.1129 17.1129C15.8925 18.3333 13.9283 18.3333 9.99996 18.3333Z" fill="#7B58E8"/>
<path d="M13.3586 7.47471C13.6027 7.71879 13.6027 8.11452 13.3586 8.3586L9.19198 12.5253C8.94791 12.7693 8.55218 12.7693 8.3081 12.5253L6.64143 10.8586C6.39735 10.6145 6.39735 10.2188 6.64143 9.97471C6.88551 9.73064 7.28124 9.73064 7.52532 9.97471L8.75004 11.1994L12.4748 7.47471C12.7188 7.23064 13.1146 7.23064 13.3586 7.47471Z" fill="white"/>
</svg>
